<mxfile host="app.diagrams.net" modified="2023-07-10T13:18:39.480Z" agent="Mozilla/5.0 (Windows NT 10.0; Win64; x64) AppleWebKit/537.36 (KHTML, like Gecko) Chrome/114.0.0.0 Safari/537.36" etag="jM2tjq-cYS1T4khLFRR7" version="21.6.1" type="device">
  <diagram name="페이지-1" id="k_MnG2lOwUZjH68KwT8t">
    <mxGraphModel dx="1434" dy="764" grid="1" gridSize="10" guides="1" tooltips="1" connect="1" arrows="1" fold="1" page="1" pageScale="1" pageWidth="4681" pageHeight="3300" math="0" shadow="0">
      <root>
        <mxCell id="0" />
        <mxCell id="1" parent="0" />
        <mxCell id="VIffMIF7JvCzjpEnQhFR-12" style="rounded=0;orthogonalLoop=1;jettySize=auto;html=1;entryX=1;entryY=0.5;entryDx=0;entryDy=0;exitX=0.5;exitY=1;exitDx=0;exitDy=0;" parent="1" source="VIffMIF7JvCzjpEnQhFR-2" target="VIffMIF7JvCzjpEnQhFR-6" edge="1">
          <mxGeometry relative="1" as="geometry" />
        </mxCell>
        <mxCell id="VIffMIF7JvCzjpEnQhFR-13" style="edgeStyle=none;shape=connector;rounded=0;orthogonalLoop=1;jettySize=auto;html=1;entryX=1.02;entryY=0.325;entryDx=0;entryDy=0;labelBackgroundColor=default;strokeColor=default;fontFamily=Helvetica;fontSize=11;fontColor=default;endArrow=classic;exitX=0.45;exitY=1.025;exitDx=0;exitDy=0;exitPerimeter=0;entryPerimeter=0;" parent="1" source="VIffMIF7JvCzjpEnQhFR-2" target="VIffMIF7JvCzjpEnQhFR-10" edge="1">
          <mxGeometry relative="1" as="geometry" />
        </mxCell>
        <mxCell id="VIffMIF7JvCzjpEnQhFR-14" style="edgeStyle=none;shape=connector;rounded=0;orthogonalLoop=1;jettySize=auto;html=1;entryX=0.5;entryY=0;entryDx=0;entryDy=0;labelBackgroundColor=default;strokeColor=default;fontFamily=Helvetica;fontSize=11;fontColor=default;endArrow=classic;exitX=0.5;exitY=1;exitDx=0;exitDy=0;" parent="1" source="VIffMIF7JvCzjpEnQhFR-2" target="VIffMIF7JvCzjpEnQhFR-7" edge="1">
          <mxGeometry relative="1" as="geometry" />
        </mxCell>
        <mxCell id="VIffMIF7JvCzjpEnQhFR-15" style="edgeStyle=none;shape=connector;rounded=0;orthogonalLoop=1;jettySize=auto;html=1;entryX=0.5;entryY=0;entryDx=0;entryDy=0;labelBackgroundColor=default;strokeColor=default;fontFamily=Helvetica;fontSize=11;fontColor=default;endArrow=classic;exitX=0.5;exitY=1;exitDx=0;exitDy=0;" parent="1" source="VIffMIF7JvCzjpEnQhFR-2" target="VIffMIF7JvCzjpEnQhFR-11" edge="1">
          <mxGeometry relative="1" as="geometry" />
        </mxCell>
        <mxCell id="VIffMIF7JvCzjpEnQhFR-16" style="edgeStyle=none;shape=connector;rounded=0;orthogonalLoop=1;jettySize=auto;html=1;entryX=0.5;entryY=0;entryDx=0;entryDy=0;labelBackgroundColor=default;strokeColor=default;fontFamily=Helvetica;fontSize=11;fontColor=default;endArrow=classic;exitX=0.5;exitY=1;exitDx=0;exitDy=0;" parent="1" source="VIffMIF7JvCzjpEnQhFR-2" target="VIffMIF7JvCzjpEnQhFR-8" edge="1">
          <mxGeometry relative="1" as="geometry" />
        </mxCell>
        <mxCell id="VIffMIF7JvCzjpEnQhFR-17" style="edgeStyle=none;shape=connector;rounded=0;orthogonalLoop=1;jettySize=auto;html=1;entryX=0.5;entryY=0;entryDx=0;entryDy=0;labelBackgroundColor=default;strokeColor=default;fontFamily=Helvetica;fontSize=11;fontColor=default;endArrow=classic;exitX=0.5;exitY=1;exitDx=0;exitDy=0;" parent="1" source="VIffMIF7JvCzjpEnQhFR-2" target="VIffMIF7JvCzjpEnQhFR-9" edge="1">
          <mxGeometry relative="1" as="geometry" />
        </mxCell>
        <mxCell id="VIffMIF7JvCzjpEnQhFR-2" value="유저" style="rounded=1;whiteSpace=wrap;html=1;" parent="1" vertex="1">
          <mxGeometry x="400" y="400" width="120" height="40" as="geometry" />
        </mxCell>
        <mxCell id="VIffMIF7JvCzjpEnQhFR-26" style="edgeStyle=none;shape=connector;rounded=0;orthogonalLoop=1;jettySize=auto;html=1;entryX=0.5;entryY=0;entryDx=0;entryDy=0;labelBackgroundColor=default;strokeColor=default;fontFamily=Helvetica;fontSize=11;fontColor=default;endArrow=classic;exitX=0.5;exitY=1;exitDx=0;exitDy=0;" parent="1" source="VIffMIF7JvCzjpEnQhFR-3" target="VIffMIF7JvCzjpEnQhFR-22" edge="1">
          <mxGeometry relative="1" as="geometry" />
        </mxCell>
        <mxCell id="VIffMIF7JvCzjpEnQhFR-29" style="edgeStyle=none;shape=connector;rounded=0;orthogonalLoop=1;jettySize=auto;html=1;entryX=0;entryY=0.5;entryDx=0;entryDy=0;labelBackgroundColor=default;strokeColor=default;fontFamily=Helvetica;fontSize=11;fontColor=default;endArrow=classic;exitX=1;exitY=0.5;exitDx=0;exitDy=0;" parent="1" source="mGf1aavDDDnUN7RHEFC1-1" target="VIffMIF7JvCzjpEnQhFR-21" edge="1">
          <mxGeometry relative="1" as="geometry" />
        </mxCell>
        <mxCell id="VIffMIF7JvCzjpEnQhFR-30" style="edgeStyle=none;shape=connector;rounded=0;orthogonalLoop=1;jettySize=auto;html=1;entryX=0.5;entryY=0;entryDx=0;entryDy=0;labelBackgroundColor=default;strokeColor=default;fontFamily=Helvetica;fontSize=11;fontColor=default;endArrow=classic;exitX=0.5;exitY=1;exitDx=0;exitDy=0;" parent="1" source="VIffMIF7JvCzjpEnQhFR-3" target="VIffMIF7JvCzjpEnQhFR-24" edge="1">
          <mxGeometry relative="1" as="geometry" />
        </mxCell>
        <mxCell id="VIffMIF7JvCzjpEnQhFR-3" value="계획" style="rounded=1;whiteSpace=wrap;html=1;" parent="1" vertex="1">
          <mxGeometry x="860" y="400" width="120" height="40" as="geometry" />
        </mxCell>
        <mxCell id="VIffMIF7JvCzjpEnQhFR-6" value="이메일" style="ellipse;whiteSpace=wrap;html=1;align=center;fontStyle=4;" parent="1" vertex="1">
          <mxGeometry x="160" y="400" width="100" height="40" as="geometry" />
        </mxCell>
        <mxCell id="VIffMIF7JvCzjpEnQhFR-7" value="이름" style="ellipse;whiteSpace=wrap;html=1;align=center;" parent="1" vertex="1">
          <mxGeometry x="210" y="500" width="100" height="40" as="geometry" />
        </mxCell>
        <mxCell id="VIffMIF7JvCzjpEnQhFR-8" value="생년월일" style="ellipse;whiteSpace=wrap;html=1;align=center;" parent="1" vertex="1">
          <mxGeometry x="420" y="520" width="100" height="40" as="geometry" />
        </mxCell>
        <mxCell id="VIffMIF7JvCzjpEnQhFR-9" value="사용유무" style="ellipse;whiteSpace=wrap;html=1;align=center;" parent="1" vertex="1">
          <mxGeometry x="590" y="450" width="100" height="40" as="geometry" />
        </mxCell>
        <mxCell id="VIffMIF7JvCzjpEnQhFR-10" value="비밀번호" style="ellipse;whiteSpace=wrap;html=1;align=center;" parent="1" vertex="1">
          <mxGeometry x="180" y="450" width="100" height="40" as="geometry" />
        </mxCell>
        <mxCell id="VIffMIF7JvCzjpEnQhFR-11" value="전화번호" style="ellipse;whiteSpace=wrap;html=1;align=center;" parent="1" vertex="1">
          <mxGeometry x="310" y="520" width="100" height="40" as="geometry" />
        </mxCell>
        <mxCell id="VIffMIF7JvCzjpEnQhFR-18" value="CODE" style="ellipse;whiteSpace=wrap;html=1;align=center;fontStyle=4;" parent="1" vertex="1">
          <mxGeometry x="760" y="520" width="100" height="40" as="geometry" />
        </mxCell>
        <mxCell id="VIffMIF7JvCzjpEnQhFR-21" value="횟수" style="ellipse;whiteSpace=wrap;html=1;align=center;" parent="1" vertex="1">
          <mxGeometry x="1280" y="480" width="100" height="40" as="geometry" />
        </mxCell>
        <mxCell id="VIffMIF7JvCzjpEnQhFR-22" value="챌린지명" style="ellipse;whiteSpace=wrap;html=1;align=center;" parent="1" vertex="1">
          <mxGeometry x="870" y="520" width="100" height="40" as="geometry" />
        </mxCell>
        <mxCell id="VIffMIF7JvCzjpEnQhFR-24" value="사용유무" style="ellipse;whiteSpace=wrap;html=1;align=center;" parent="1" vertex="1">
          <mxGeometry x="980" y="520" width="100" height="40" as="geometry" />
        </mxCell>
        <mxCell id="VIffMIF7JvCzjpEnQhFR-25" style="edgeStyle=none;shape=connector;rounded=0;orthogonalLoop=1;jettySize=auto;html=1;entryX=0.5;entryY=0;entryDx=0;entryDy=0;labelBackgroundColor=default;strokeColor=default;fontFamily=Helvetica;fontSize=11;fontColor=default;endArrow=classic;exitX=0.5;exitY=1;exitDx=0;exitDy=0;" parent="1" source="VIffMIF7JvCzjpEnQhFR-3" target="VIffMIF7JvCzjpEnQhFR-18" edge="1">
          <mxGeometry relative="1" as="geometry">
            <mxPoint x="810" y="390" as="sourcePoint" />
            <mxPoint x="1080" y="470" as="targetPoint" />
          </mxGeometry>
        </mxCell>
        <mxCell id="VIffMIF7JvCzjpEnQhFR-32" value="챌린지등록" style="shape=rhombus;perimeter=rhombusPerimeter;whiteSpace=wrap;html=1;align=center;fontFamily=Helvetica;fontSize=11;fillColor=#dae8fc;strokeColor=#6c8ebf;" parent="1" vertex="1">
          <mxGeometry x="400" y="190" width="120" height="60" as="geometry" />
        </mxCell>
        <mxCell id="VIffMIF7JvCzjpEnQhFR-33" value="" style="fontSize=12;html=1;endArrow=ERoneToMany;rounded=0;labelBackgroundColor=default;strokeColor=#6c8ebf;fontFamily=Helvetica;fontColor=default;shape=connector;exitX=0.5;exitY=0;exitDx=0;exitDy=0;entryX=0.5;entryY=1;entryDx=0;entryDy=0;fillColor=#dae8fc;" parent="1" source="VIffMIF7JvCzjpEnQhFR-2" target="VIffMIF7JvCzjpEnQhFR-32" edge="1">
          <mxGeometry width="100" height="100" relative="1" as="geometry">
            <mxPoint x="530" y="380" as="sourcePoint" />
            <mxPoint x="630" y="280" as="targetPoint" />
          </mxGeometry>
        </mxCell>
        <mxCell id="VIffMIF7JvCzjpEnQhFR-34" value="" style="fontSize=12;html=1;endArrow=ERoneToMany;rounded=0;labelBackgroundColor=default;strokeColor=#6c8ebf;fontFamily=Helvetica;fontColor=default;shape=connector;exitX=0;exitY=0.5;exitDx=0;exitDy=0;entryX=0.5;entryY=1;entryDx=0;entryDy=0;fillColor=#dae8fc;" parent="1" source="VIffMIF7JvCzjpEnQhFR-3" target="VIffMIF7JvCzjpEnQhFR-32" edge="1">
          <mxGeometry width="100" height="100" relative="1" as="geometry">
            <mxPoint x="720" y="380" as="sourcePoint" />
            <mxPoint x="1050" y="200" as="targetPoint" />
          </mxGeometry>
        </mxCell>
        <mxCell id="VIffMIF7JvCzjpEnQhFR-35" value="SEQ" style="ellipse;whiteSpace=wrap;html=1;align=center;fontStyle=4;" parent="1" vertex="1">
          <mxGeometry x="160" y="200" width="100" height="40" as="geometry" />
        </mxCell>
        <mxCell id="VIffMIF7JvCzjpEnQhFR-37" value="사용유무" style="ellipse;whiteSpace=wrap;html=1;align=center;" parent="1" vertex="1">
          <mxGeometry x="620" y="40" width="100" height="40" as="geometry" />
        </mxCell>
        <mxCell id="VIffMIF7JvCzjpEnQhFR-38" value="메모" style="ellipse;whiteSpace=wrap;html=1;align=center;" parent="1" vertex="1">
          <mxGeometry x="400" y="40" width="100" height="40" as="geometry" />
        </mxCell>
        <mxCell id="VIffMIF7JvCzjpEnQhFR-39" value="공유유무" style="ellipse;whiteSpace=wrap;html=1;align=center;" parent="1" vertex="1">
          <mxGeometry x="510" y="40" width="100" height="40" as="geometry" />
        </mxCell>
        <mxCell id="VIffMIF7JvCzjpEnQhFR-40" value="시작날짜" style="ellipse;whiteSpace=wrap;html=1;align=center;" parent="1" vertex="1">
          <mxGeometry x="160" y="140" width="100" height="40" as="geometry" />
        </mxCell>
        <mxCell id="VIffMIF7JvCzjpEnQhFR-41" value="횟수" style="ellipse;whiteSpace=wrap;html=1;align=center;" parent="1" vertex="1">
          <mxGeometry x="290" y="40" width="100" height="40" as="geometry" />
        </mxCell>
        <mxCell id="VIffMIF7JvCzjpEnQhFR-42" value="종료날짜" style="ellipse;whiteSpace=wrap;html=1;align=center;" parent="1" vertex="1">
          <mxGeometry x="200" y="80" width="100" height="40" as="geometry" />
        </mxCell>
        <mxCell id="VIffMIF7JvCzjpEnQhFR-43" style="rounded=0;orthogonalLoop=1;jettySize=auto;html=1;entryX=1;entryY=0.5;entryDx=0;entryDy=0;exitX=0.5;exitY=0;exitDx=0;exitDy=0;" parent="1" source="VIffMIF7JvCzjpEnQhFR-32" target="VIffMIF7JvCzjpEnQhFR-35" edge="1">
          <mxGeometry relative="1" as="geometry">
            <mxPoint x="380" y="160" as="sourcePoint" />
            <mxPoint x="50" y="240" as="targetPoint" />
          </mxGeometry>
        </mxCell>
        <mxCell id="VIffMIF7JvCzjpEnQhFR-45" style="rounded=0;orthogonalLoop=1;jettySize=auto;html=1;entryX=1;entryY=0.5;entryDx=0;entryDy=0;exitX=0.5;exitY=0;exitDx=0;exitDy=0;" parent="1" source="VIffMIF7JvCzjpEnQhFR-32" target="VIffMIF7JvCzjpEnQhFR-40" edge="1">
          <mxGeometry relative="1" as="geometry">
            <mxPoint x="480" y="210" as="sourcePoint" />
            <mxPoint x="150" y="90" as="targetPoint" />
          </mxGeometry>
        </mxCell>
        <mxCell id="VIffMIF7JvCzjpEnQhFR-46" style="rounded=0;orthogonalLoop=1;jettySize=auto;html=1;entryX=1;entryY=1;entryDx=0;entryDy=0;exitX=0.5;exitY=0;exitDx=0;exitDy=0;" parent="1" source="VIffMIF7JvCzjpEnQhFR-32" target="VIffMIF7JvCzjpEnQhFR-42" edge="1">
          <mxGeometry relative="1" as="geometry">
            <mxPoint x="500" y="180" as="sourcePoint" />
            <mxPoint x="370" y="80" as="targetPoint" />
          </mxGeometry>
        </mxCell>
        <mxCell id="VIffMIF7JvCzjpEnQhFR-47" style="rounded=0;orthogonalLoop=1;jettySize=auto;html=1;entryX=0.5;entryY=1;entryDx=0;entryDy=0;exitX=0.5;exitY=0;exitDx=0;exitDy=0;" parent="1" source="VIffMIF7JvCzjpEnQhFR-32" target="VIffMIF7JvCzjpEnQhFR-41" edge="1">
          <mxGeometry relative="1" as="geometry">
            <mxPoint x="540" y="210" as="sourcePoint" />
            <mxPoint x="450" y="90" as="targetPoint" />
          </mxGeometry>
        </mxCell>
        <mxCell id="VIffMIF7JvCzjpEnQhFR-48" style="rounded=0;orthogonalLoop=1;jettySize=auto;html=1;entryX=0.5;entryY=1;entryDx=0;entryDy=0;exitX=0.5;exitY=0;exitDx=0;exitDy=0;" parent="1" source="VIffMIF7JvCzjpEnQhFR-32" target="VIffMIF7JvCzjpEnQhFR-38" edge="1">
          <mxGeometry relative="1" as="geometry">
            <mxPoint x="660" y="230" as="sourcePoint" />
            <mxPoint x="570" y="110" as="targetPoint" />
          </mxGeometry>
        </mxCell>
        <mxCell id="VIffMIF7JvCzjpEnQhFR-49" style="rounded=0;orthogonalLoop=1;jettySize=auto;html=1;entryX=0.5;entryY=1;entryDx=0;entryDy=0;exitX=0.5;exitY=0;exitDx=0;exitDy=0;" parent="1" source="VIffMIF7JvCzjpEnQhFR-32" target="VIffMIF7JvCzjpEnQhFR-37" edge="1">
          <mxGeometry relative="1" as="geometry">
            <mxPoint x="820" y="260" as="sourcePoint" />
            <mxPoint x="730" y="140" as="targetPoint" />
          </mxGeometry>
        </mxCell>
        <mxCell id="VIffMIF7JvCzjpEnQhFR-50" style="rounded=0;orthogonalLoop=1;jettySize=auto;html=1;entryX=0.5;entryY=1;entryDx=0;entryDy=0;exitX=0.5;exitY=0;exitDx=0;exitDy=0;" parent="1" source="VIffMIF7JvCzjpEnQhFR-32" target="VIffMIF7JvCzjpEnQhFR-39" edge="1">
          <mxGeometry relative="1" as="geometry">
            <mxPoint x="720" y="270" as="sourcePoint" />
            <mxPoint x="630" y="150" as="targetPoint" />
          </mxGeometry>
        </mxCell>
        <mxCell id="5VXHxehQuL1IfuYJvvNX-18" value="일정&lt;br&gt;등록" style="shape=rhombus;perimeter=rhombusPerimeter;whiteSpace=wrap;html=1;align=center;fontFamily=Helvetica;fontSize=11;fillColor=#d5e8d4;strokeColor=#82b366;" parent="1" vertex="1">
          <mxGeometry x="860" y="190" width="120" height="60" as="geometry" />
        </mxCell>
        <mxCell id="5VXHxehQuL1IfuYJvvNX-19" value="SEQ" style="ellipse;whiteSpace=wrap;html=1;align=center;fontStyle=4;" parent="1" vertex="1">
          <mxGeometry x="760" y="40" width="100" height="40" as="geometry" />
        </mxCell>
        <mxCell id="5VXHxehQuL1IfuYJvvNX-20" value="사용유무" style="ellipse;whiteSpace=wrap;html=1;align=center;" parent="1" vertex="1">
          <mxGeometry x="1180" y="200" width="100" height="40" as="geometry" />
        </mxCell>
        <mxCell id="5VXHxehQuL1IfuYJvvNX-21" value="메모" style="ellipse;whiteSpace=wrap;html=1;align=center;" parent="1" vertex="1">
          <mxGeometry x="1170" y="90" width="100" height="40" as="geometry" />
        </mxCell>
        <mxCell id="5VXHxehQuL1IfuYJvvNX-22" value="공유유무" style="ellipse;whiteSpace=wrap;html=1;align=center;" parent="1" vertex="1">
          <mxGeometry x="1180" y="140" width="100" height="40" as="geometry" />
        </mxCell>
        <mxCell id="5VXHxehQuL1IfuYJvvNX-23" value="시작날짜" style="ellipse;whiteSpace=wrap;html=1;align=center;" parent="1" vertex="1">
          <mxGeometry x="870" y="40" width="100" height="40" as="geometry" />
        </mxCell>
        <mxCell id="5VXHxehQuL1IfuYJvvNX-24" value="횟수" style="ellipse;whiteSpace=wrap;html=1;align=center;" parent="1" vertex="1">
          <mxGeometry x="1090" y="40" width="100" height="40" as="geometry" />
        </mxCell>
        <mxCell id="5VXHxehQuL1IfuYJvvNX-25" value="종료날짜" style="ellipse;whiteSpace=wrap;html=1;align=center;" parent="1" vertex="1">
          <mxGeometry x="980" y="40" width="100" height="40" as="geometry" />
        </mxCell>
        <mxCell id="5VXHxehQuL1IfuYJvvNX-26" style="rounded=0;orthogonalLoop=1;jettySize=auto;html=1;entryX=0.5;entryY=1;entryDx=0;entryDy=0;exitX=0.5;exitY=0;exitDx=0;exitDy=0;" parent="1" source="5VXHxehQuL1IfuYJvvNX-18" target="5VXHxehQuL1IfuYJvvNX-19" edge="1">
          <mxGeometry relative="1" as="geometry">
            <mxPoint x="1170" y="160" as="sourcePoint" />
            <mxPoint x="840" y="240" as="targetPoint" />
          </mxGeometry>
        </mxCell>
        <mxCell id="5VXHxehQuL1IfuYJvvNX-27" style="rounded=0;orthogonalLoop=1;jettySize=auto;html=1;entryX=0.5;entryY=1;entryDx=0;entryDy=0;exitX=0.5;exitY=0;exitDx=0;exitDy=0;" parent="1" source="5VXHxehQuL1IfuYJvvNX-18" target="5VXHxehQuL1IfuYJvvNX-23" edge="1">
          <mxGeometry relative="1" as="geometry">
            <mxPoint x="1270" y="210" as="sourcePoint" />
            <mxPoint x="940" y="90" as="targetPoint" />
          </mxGeometry>
        </mxCell>
        <mxCell id="5VXHxehQuL1IfuYJvvNX-28" style="rounded=0;orthogonalLoop=1;jettySize=auto;html=1;entryX=0.5;entryY=1;entryDx=0;entryDy=0;exitX=0.5;exitY=0;exitDx=0;exitDy=0;" parent="1" source="5VXHxehQuL1IfuYJvvNX-18" target="5VXHxehQuL1IfuYJvvNX-25" edge="1">
          <mxGeometry relative="1" as="geometry">
            <mxPoint x="1290" y="180" as="sourcePoint" />
            <mxPoint x="1160" y="80" as="targetPoint" />
          </mxGeometry>
        </mxCell>
        <mxCell id="5VXHxehQuL1IfuYJvvNX-29" style="rounded=0;orthogonalLoop=1;jettySize=auto;html=1;entryX=0.5;entryY=1;entryDx=0;entryDy=0;exitX=0.5;exitY=0;exitDx=0;exitDy=0;" parent="1" source="5VXHxehQuL1IfuYJvvNX-18" target="5VXHxehQuL1IfuYJvvNX-24" edge="1">
          <mxGeometry relative="1" as="geometry">
            <mxPoint x="1330" y="210" as="sourcePoint" />
            <mxPoint x="1240" y="90" as="targetPoint" />
          </mxGeometry>
        </mxCell>
        <mxCell id="5VXHxehQuL1IfuYJvvNX-30" style="rounded=0;orthogonalLoop=1;jettySize=auto;html=1;entryX=0;entryY=0.5;entryDx=0;entryDy=0;exitX=0.5;exitY=0;exitDx=0;exitDy=0;" parent="1" source="5VXHxehQuL1IfuYJvvNX-18" target="5VXHxehQuL1IfuYJvvNX-21" edge="1">
          <mxGeometry relative="1" as="geometry">
            <mxPoint x="1450" y="230" as="sourcePoint" />
            <mxPoint x="1360" y="110" as="targetPoint" />
          </mxGeometry>
        </mxCell>
        <mxCell id="5VXHxehQuL1IfuYJvvNX-31" style="rounded=0;orthogonalLoop=1;jettySize=auto;html=1;entryX=0;entryY=0.5;entryDx=0;entryDy=0;exitX=0.5;exitY=0;exitDx=0;exitDy=0;" parent="1" source="5VXHxehQuL1IfuYJvvNX-18" target="5VXHxehQuL1IfuYJvvNX-20" edge="1">
          <mxGeometry relative="1" as="geometry">
            <mxPoint x="1610" y="260" as="sourcePoint" />
            <mxPoint x="1520" y="140" as="targetPoint" />
          </mxGeometry>
        </mxCell>
        <mxCell id="5VXHxehQuL1IfuYJvvNX-32" style="rounded=0;orthogonalLoop=1;jettySize=auto;html=1;entryX=0;entryY=0.5;entryDx=0;entryDy=0;exitX=0.5;exitY=0;exitDx=0;exitDy=0;" parent="1" source="5VXHxehQuL1IfuYJvvNX-18" target="5VXHxehQuL1IfuYJvvNX-22" edge="1">
          <mxGeometry relative="1" as="geometry">
            <mxPoint x="1510" y="270" as="sourcePoint" />
            <mxPoint x="1420" y="150" as="targetPoint" />
          </mxGeometry>
        </mxCell>
        <mxCell id="5VXHxehQuL1IfuYJvvNX-33" value="" style="fontSize=12;html=1;endArrow=ERoneToMany;rounded=0;labelBackgroundColor=default;strokeColor=#82b366;fontFamily=Helvetica;fontColor=default;shape=connector;exitX=1;exitY=0.5;exitDx=0;exitDy=0;entryX=0.5;entryY=1;entryDx=0;entryDy=0;fillColor=#d5e8d4;" parent="1" source="VIffMIF7JvCzjpEnQhFR-2" target="5VXHxehQuL1IfuYJvvNX-18" edge="1">
          <mxGeometry width="100" height="100" relative="1" as="geometry">
            <mxPoint x="630" y="410" as="sourcePoint" />
            <mxPoint x="640" y="260" as="targetPoint" />
          </mxGeometry>
        </mxCell>
        <mxCell id="5VXHxehQuL1IfuYJvvNX-34" value="" style="fontSize=12;html=1;endArrow=ERoneToMany;rounded=0;labelBackgroundColor=default;strokeColor=#82b366;fontFamily=Helvetica;fontColor=default;shape=connector;exitX=0.5;exitY=0;exitDx=0;exitDy=0;entryX=0.5;entryY=1;entryDx=0;entryDy=0;fillColor=#d5e8d4;" parent="1" source="VIffMIF7JvCzjpEnQhFR-3" target="5VXHxehQuL1IfuYJvvNX-18" edge="1">
          <mxGeometry width="100" height="100" relative="1" as="geometry">
            <mxPoint x="1110" y="390" as="sourcePoint" />
            <mxPoint x="1110" y="240" as="targetPoint" />
          </mxGeometry>
        </mxCell>
        <mxCell id="mGf1aavDDDnUN7RHEFC1-1" value="챌린지 로그" style="rounded=1;whiteSpace=wrap;html=1;fillColor=#f8cecc;strokeColor=#b85450;" parent="1" vertex="1">
          <mxGeometry x="1080" y="400" width="120" height="40" as="geometry" />
        </mxCell>
        <mxCell id="mGf1aavDDDnUN7RHEFC1-4" style="edgeStyle=none;shape=connector;rounded=0;orthogonalLoop=1;jettySize=auto;html=1;entryX=0;entryY=0.5;entryDx=0;entryDy=0;labelBackgroundColor=default;strokeColor=default;fontFamily=Helvetica;fontSize=11;fontColor=default;endArrow=classic;exitX=1;exitY=0.5;exitDx=0;exitDy=0;" parent="1" source="mGf1aavDDDnUN7RHEFC1-1" target="mGf1aavDDDnUN7RHEFC1-6" edge="1">
          <mxGeometry relative="1" as="geometry">
            <mxPoint x="1540" y="440" as="sourcePoint" />
            <mxPoint x="1370" y="520" as="targetPoint" />
          </mxGeometry>
        </mxCell>
        <mxCell id="mGf1aavDDDnUN7RHEFC1-5" style="edgeStyle=none;shape=connector;rounded=0;orthogonalLoop=1;jettySize=auto;html=1;entryX=0;entryY=0.5;entryDx=0;entryDy=0;labelBackgroundColor=default;strokeColor=default;fontFamily=Helvetica;fontSize=11;fontColor=default;endArrow=classic;exitX=1;exitY=0.5;exitDx=0;exitDy=0;" parent="1" source="mGf1aavDDDnUN7RHEFC1-1" target="mGf1aavDDDnUN7RHEFC1-7" edge="1">
          <mxGeometry relative="1" as="geometry">
            <mxPoint x="1540" y="440" as="sourcePoint" />
          </mxGeometry>
        </mxCell>
        <mxCell id="mGf1aavDDDnUN7RHEFC1-6" value="시작날짜" style="ellipse;whiteSpace=wrap;html=1;align=center;" parent="1" vertex="1">
          <mxGeometry x="1280" y="400" width="100" height="40" as="geometry" />
        </mxCell>
        <mxCell id="mGf1aavDDDnUN7RHEFC1-7" value="종료날짜" style="ellipse;whiteSpace=wrap;html=1;align=center;" parent="1" vertex="1">
          <mxGeometry x="1280" y="440" width="100" height="40" as="geometry" />
        </mxCell>
        <mxCell id="mGf1aavDDDnUN7RHEFC1-11" value="" style="fontSize=12;html=1;endArrow=ERoneToMany;rounded=0;labelBackgroundColor=default;strokeColor=#b85450;fontFamily=Helvetica;fontColor=default;shape=connector;exitX=1;exitY=0.5;exitDx=0;exitDy=0;entryX=0;entryY=0.5;entryDx=0;entryDy=0;fillColor=#f8cecc;" parent="1" source="VIffMIF7JvCzjpEnQhFR-3" target="mGf1aavDDDnUN7RHEFC1-1" edge="1">
          <mxGeometry width="100" height="100" relative="1" as="geometry">
            <mxPoint x="1170" y="440" as="sourcePoint" />
            <mxPoint x="1270" y="290" as="targetPoint" />
          </mxGeometry>
        </mxCell>
        <mxCell id="mGf1aavDDDnUN7RHEFC1-12" style="edgeStyle=orthogonalEdgeStyle;rounded=0;orthogonalLoop=1;jettySize=auto;html=1;exitX=0.5;exitY=1;exitDx=0;exitDy=0;" parent="1" edge="1">
          <mxGeometry relative="1" as="geometry">
            <mxPoint x="1370" y="560" as="sourcePoint" />
            <mxPoint x="1370" y="560" as="targetPoint" />
          </mxGeometry>
        </mxCell>
        <mxCell id="mGf1aavDDDnUN7RHEFC1-13" value="SEQ" style="ellipse;whiteSpace=wrap;html=1;align=center;fontStyle=4;" parent="1" vertex="1">
          <mxGeometry x="1280" y="360" width="100" height="40" as="geometry" />
        </mxCell>
        <mxCell id="mGf1aavDDDnUN7RHEFC1-14" style="edgeStyle=none;shape=connector;rounded=0;orthogonalLoop=1;jettySize=auto;html=1;entryX=0;entryY=0.5;entryDx=0;entryDy=0;labelBackgroundColor=default;strokeColor=default;fontFamily=Helvetica;fontSize=11;fontColor=default;endArrow=classic;exitX=1;exitY=0.5;exitDx=0;exitDy=0;" parent="1" source="mGf1aavDDDnUN7RHEFC1-1" target="mGf1aavDDDnUN7RHEFC1-13" edge="1">
          <mxGeometry relative="1" as="geometry">
            <mxPoint x="1480" y="420" as="sourcePoint" />
            <mxPoint x="1530" y="410" as="targetPoint" />
          </mxGeometry>
        </mxCell>
        <mxCell id="ii3xW-CQ6pEKq7hUfn3s-1" value="권한" style="ellipse;whiteSpace=wrap;html=1;align=center;" parent="1" vertex="1">
          <mxGeometry x="530" y="500" width="100" height="40" as="geometry" />
        </mxCell>
        <mxCell id="ii3xW-CQ6pEKq7hUfn3s-2" style="edgeStyle=none;shape=connector;rounded=0;orthogonalLoop=1;jettySize=auto;html=1;entryX=0.5;entryY=0;entryDx=0;entryDy=0;labelBackgroundColor=default;strokeColor=default;fontFamily=Helvetica;fontSize=11;fontColor=default;endArrow=classic;exitX=0.5;exitY=1;exitDx=0;exitDy=0;" parent="1" source="VIffMIF7JvCzjpEnQhFR-2" target="ii3xW-CQ6pEKq7hUfn3s-1" edge="1">
          <mxGeometry relative="1" as="geometry">
            <mxPoint x="470" y="450" as="sourcePoint" />
            <mxPoint x="650" y="460" as="targetPoint" />
          </mxGeometry>
        </mxCell>
      </root>
    </mxGraphModel>
  </diagram>
</mxfile>
